<?xml version="1.0" encoding="UTF-8" standalone="no"?>
<svg
   xmlns:dc="http://purl.org/dc/elements/1.1/"
   xmlns:cc="http://creativecommons.org/ns#"
   xmlns:rdf="http://www.w3.org/1999/02/22-rdf-syntax-ns#"
   xmlns:svg="http://www.w3.org/2000/svg"
   xmlns="http://www.w3.org/2000/svg"
   version="1.1"
   id="svg2"
   viewBox="0 0 35.433071 35.43307"
   height="1cm"
   width="1cm">
  <defs
     id="defs4" />
  <metadata
     id="metadata7">
    <rdf:RDF>
      <cc:Work
         rdf:about="">
        <dc:format>image/svg+xml</dc:format>
        <dc:type
           rdf:resource="http://purl.org/dc/dcmitype/StillImage" />
        <dc:title></dc:title>
      </cc:Work>
    </rdf:RDF>
  </metadata>
  <g
     transform="translate(0,-1016.9292)"
     id="layer1">
    <path
       id="rect4136"
       d="m 26.6875,1017.5444 c -4.786194,-0.058 -10.532626,1.4103 -12.816406,3.7539 l -11.9687502,12.248 c -1.60830903,1.6458 -1.83293853,4.0658 -0.5039063,5.4258 L 13.375,1051.228 c 1.329032,1.3601 3.692473,1.1302 5.300781,-0.5156 l 12.019531,-12.2989 c 2.846246,-2.9126 5.879357,-15.5715 2.615235,-18.9726 -1.223989,-1.2755 -3.75133,-1.8614 -6.623047,-1.8965 z m -0.548828,4.2598 a 3.8512068,3.8512068 0 0 1 3.849609,3.8515 3.8512068,3.8512068 0 0 1 -3.849609,3.8516 3.8512068,3.8512068 0 0 1 -3.851563,-3.8516 3.8512068,3.8512068 0 0 1 3.851563,-3.8515 z"
       style="color:#000000;clip-rule:nonzero;display:inline;overflow:visible;visibility:visible;opacity:1;isolation:auto;mix-blend-mode:normal;color-interpolation:sRGB;color-interpolation-filters:linearRGB;solid-color:#000000;solid-opacity:1;fill:#666666;fill-opacity:1;fill-rule:nonzero;stroke:none;stroke-width:10.16300011;stroke-linecap:round;stroke-linejoin:round;stroke-miterlimit:4;stroke-dasharray:none;stroke-dashoffset:0;stroke-opacity:0.99607843;color-rendering:auto;image-rendering:auto;shape-rendering:auto;text-rendering:auto;enable-background:accumulate" />
  </g>
</svg>
